<svg width="29.000000" height="12.000000" viewBox="0 0 29 12" fill="none" xmlns="http://www.w3.org/2000/svg" xmlns:xlink="http://www.w3.org/1999/xlink">
	<desc>
			Created with Pixso.
	</desc>
	<defs>
		<clipPath id="clip9_437">
			<rect id="logos:google-pay" width="29.000000" height="12.000000" fill="white" fill-opacity="0"/>
		</clipPath>
	</defs>
	<rect id="logos:google-pay" width="29.000000" height="12.000000" fill="#FFFFFF" fill-opacity="0"/>
	<g clip-path="url(#clip9_437)">
		<path id="Vector" d="M20.5564 3.23853C21.3536 3.23853 21.9697 3.46436 22.4409 3.91602C22.912 4.36743 23.1293 4.96973 23.1293 5.72241L23.1293 9.33521L22.1146 9.33521L22.1146 8.50732L22.0784 8.50732C21.6436 9.18481 21.0275 9.52368 20.3027 9.52368C19.6866 9.52368 19.1431 9.33545 18.7083 8.95898C18.3096 8.58276 18.0559 8.05591 18.0559 7.49121C18.0559 6.88916 18.2734 6.3999 18.7083 6.02344C19.1431 5.64722 19.7592 5.49658 20.4839 5.49658C21.1362 5.49658 21.6436 5.60962 22.0421 5.87305L22.0421 5.60962C22.0421 5.2583 21.9159 4.90698 21.6633 4.67822L21.6073 4.6311C21.3174 4.36743 20.955 4.21704 20.5564 4.21704C19.9403 4.21704 19.4692 4.48047 19.1431 5.00732L18.2009 4.40503C18.7806 3.61475 19.5417 3.23853 20.5564 3.23853ZM15.4468 0.679199C16.097 0.679199 16.715 0.914307 17.209 1.35254L17.2949 1.43188C17.8022 1.88354 18.0559 2.56104 18.0559 3.27612C18.0559 3.99121 17.8022 4.63086 17.2949 5.12012C16.7876 5.60938 16.1715 5.8728 15.4468 5.8728L13.7073 5.83521L13.7073 9.33545L12.6201 9.33545L12.6201 0.679199L15.4468 0.679199ZM20.7013 6.3999C20.2665 6.3999 19.9041 6.5127 19.6143 6.73853C19.3242 6.92676 19.1793 7.19019 19.1793 7.52881C19.1793 7.83008 19.3243 8.09326 19.5417 8.2439C19.7954 8.43213 20.0853 8.54492 20.3752 8.54492C20.7811 8.54492 21.187 8.3811 21.5044 8.08374L21.571 8.01807C21.9335 7.67944 22.1146 7.26538 22.1146 6.81372C21.7886 6.55029 21.3174 6.3999 20.7014 6.3999L20.7013 6.3999ZM15.5193 1.73291L13.7073 1.73291L13.7073 4.7439L15.5193 4.7439C15.9178 4.7439 16.3165 4.59326 16.5702 4.29224C17.1499 3.72778 17.1499 2.78687 16.6064 2.22241L16.5702 2.18457C16.2803 1.88354 15.9178 1.69531 15.5192 1.73315L15.5193 1.73291ZM29 3.42651L25.4124 11.9697L24.3252 11.9697L25.666 8.99658L23.3105 3.46436L24.4702 3.46436L26.1733 7.71704L26.2096 7.71704L27.8766 3.46436L29 3.46436L29 3.42651Z" fill="#5F6368" fill-opacity="1.000000" fill-rule="nonzero"/>
		<path id="Vector" d="M9.3949 5.08252C9.3949 4.7439 9.35864 4.40503 9.32239 4.06641L4.79272 4.06641L4.79272 5.98584L7.3656 5.98584C7.25696 6.58789 6.93079 7.15234 6.42346 7.49121L6.42346 8.73315L7.98169 8.73315C8.8877 7.86768 9.39502 6.58789 9.39502 5.08252L9.3949 5.08252Z" fill="#4285F4" fill-opacity="1.000000" fill-rule="nonzero"/>
		<path id="Vector" d="M4.7926 9.93774C6.09717 9.93774 7.18433 9.48608 7.98157 8.7334L6.42334 7.49146C5.98853 7.79248 5.44495 7.98047 4.7926 7.98047C3.56042 7.98047 2.47327 7.11499 2.11096 5.91064L0.516479 5.91064L0.516479 7.19019C1.34998 8.88379 2.98071 9.93774 4.7926 9.93774Z" fill="#34A853" fill-opacity="1.000000" fill-rule="nonzero"/>
		<path id="Vector" d="M2.11084 5.91089C1.89343 5.30884 1.89343 4.63135 2.11084 3.99146L2.11084 2.71191L0.516479 2.71191C-0.172119 4.10449 -0.172119 5.7605 0.516479 7.19043L2.11084 5.91089Z" fill="#FBBC04" fill-opacity="1.000000" fill-rule="nonzero"/>
		<path id="Vector" d="M4.7926 1.95898C5.48108 1.95898 6.1333 2.22266 6.64075 2.71167L8.01782 1.28174C7.14807 0.453613 5.9884 -0.0356445 4.82874 0.00195312C3.01685 0.00195312 1.34985 1.05591 0.552612 2.74951L2.14709 4.02905C2.47327 2.82471 3.56042 1.95898 4.7926 1.95898Z" fill="#EA4335" fill-opacity="1.000000" fill-rule="nonzero"/>
	</g>
</svg>
