<svg width="73.204224" height="105.000244" viewBox="0 0 73.2042 105" fill="none" xmlns="http://www.w3.org/2000/svg" xmlns:xlink="http://www.w3.org/1999/xlink">
	<desc>
			Created with Pixso.
	</desc>
	<defs/>
	<path d="M46.0792 1.28979C45.389 2.02075 43.7538 3.56812 42.4485 4.75732C38.0975 8.68335 37.2124 10.0874 37.0924 13.2971C37.0023 15.9048 37.6324 17.8821 39.2678 20.1316C39.7029 20.7334 40.063 21.1919 40.063 21.1345C40.063 21.0916 39.793 20.533 39.4629 19.9023C38.2026 17.4954 37.8275 14.5723 38.5177 12.4946C39.1628 10.5459 40.108 9.37109 43.3037 6.54834C43.9788 5.96094 44.804 5.14429 45.149 4.75732L45.7942 4.04102L45.7041 7.0498C45.6592 9.0415 45.5541 10.417 45.389 11.1335C44.834 13.5549 43.7538 15.4749 41.7883 17.5813C40.363 19.1143 39.958 19.9883 40.348 20.7048C40.4081 20.8337 40.5131 21.3782 40.5731 21.894L40.6631 22.8396L39.8079 23.3843C36.9124 25.2183 34.8718 27.8689 34.0468 30.8779C33.8217 31.6802 33.7317 32.4541 33.7317 33.7007C33.7167 36.3513 34.2268 38.5579 35.517 41.3376L36.1921 42.7991L35.9521 43.9453C35.712 45.106 35.6371 48.5591 35.847 49.4617C35.9221 49.8201 36.0121 49.8916 36.3872 49.8916L36.8373 49.8916L36.9423 48.0432C37.3324 41.4521 39.6129 37.6265 44.969 34.5747C49.0948 32.2249 50.3102 30.9065 53.0557 25.8057C55.2162 21.7507 55.9062 20.676 57.5717 18.6272L58.5168 17.4666L57.1815 18.011C55.0211 18.8994 51.9154 19.7878 48.1647 20.5901C44.564 21.3496 42.9286 21.7937 41.6833 22.3955C41.2932 22.5818 40.9331 22.7395 40.8882 22.7395C40.8431 22.7395 40.8281 22.1663 40.8732 21.45C40.9481 19.9167 40.9631 19.8882 43.2887 17.5669C44.549 16.3203 45.074 15.6611 45.5092 14.8445C46.4694 13.0249 46.5443 12.4946 46.4393 8.98413C46.3344 5.68872 46.5143 3.53955 47.1145 1.14673C47.2645 0.530518 47.3845 0.0146484 47.3695 0.000244141C47.3545 -0.013916 46.7694 0.573486 46.0792 1.28979ZM52.9957 23.7568C49.9801 29.0581 47.8796 31.3079 43.0636 34.417C42.1184 35.0332 41.0082 35.8069 40.603 36.1221C39.1178 37.2971 37.4224 39.6182 36.7773 41.3518C36.6272 41.7673 36.4622 42.054 36.4172 41.9824C36.1771 41.6243 35.532 38.7012 35.382 37.3401C34.8868 32.8267 36.6422 28.8718 40.333 26.2212C42.4485 24.688 44.3689 23.9861 48.2397 23.3125C49.89 23.0259 52.5156 22.2952 53.6409 21.8225C53.8959 21.7222 54.106 21.6504 54.136 21.6648C54.1509 21.6792 53.6409 22.6248 52.9957 23.7568Z" fill="#151618" fill-opacity="1.000000" fill-rule="nonzero"/>
	<path d="M19.681 4.86865C20.5758 8.09717 20.8442 12.3298 20.4117 16.2898C19.8749 21.2256 20.3223 22.7178 23.5137 26.7783C24.3785 27.8689 25.3479 29.2893 25.6909 29.9207C26.6603 31.8003 27.1821 34.469 27.1971 37.6829L27.1971 39.0173L26.8392 38.8738C26.004 38.5725 24.4978 38.4434 20.71 38.3716C18.5029 38.3286 16.2212 38.2283 15.6396 38.1707C15.0729 38.0991 14.5808 38.0703 14.5659 38.0847C14.5361 38.0991 14.8344 38.3286 15.2369 38.6013C16.9221 39.7634 18.6222 41.27 20.5907 43.3503C21.7539 44.5701 23.1407 45.9187 23.6926 46.335C26.0488 48.1284 28.748 49.1758 32.0139 49.5488C33.3561 49.7068 32.8192 49.2188 30.5525 48.272C26.9436 46.751 25.1392 45.5171 22.3654 42.6904C21.3214 41.6287 20.0538 40.4951 19.5616 40.165L18.667 39.5913L20.4266 39.5913C25.0497 39.5913 27.6594 40.4521 29.8813 42.7048C30.985 43.8096 31.7754 45.187 32.178 46.6648C32.2972 47.1384 32.4315 47.5544 32.4762 47.5974C32.6254 47.7266 32.5807 45.9043 32.4166 44.9001C32.0736 42.8196 30.3438 40.5239 28.3602 39.5195L27.4954 39.0891L27.4954 36.7217C27.4954 32.0154 27.0629 30.394 24.7961 26.7209C21.7986 21.8425 21.3065 19.9199 21.396 13.1619C21.4258 11.0671 21.4706 9.34546 21.4855 9.35962C21.4855 9.37402 21.7986 9.77588 22.1565 10.2493C22.5294 10.7227 23.8566 12.1433 25.1241 13.4058C28.1963 16.4619 29.3744 18.2268 30.1051 20.8813C30.9253 23.7939 30.2543 27.8689 28.3156 31.8003C27.9576 32.532 27.6892 33.1345 27.7041 33.1345C27.734 33.1345 27.9874 32.7903 28.2858 32.3599C30.6271 28.9736 31.8052 25.157 31.6262 21.5842C31.5219 19.6331 31.1191 18.1121 30.2692 16.4189C29.4042 14.6685 28.405 13.4346 25.512 10.5505C23.2601 8.29785 21.7091 6.63354 20.0836 4.79688L19.4573 4.07959L19.681 4.86865Z" fill="#151618" fill-opacity="1.000000" fill-rule="nonzero"/>
	<path d="M46.5726 40.0361C43.1472 40.7349 40.8185 43.6445 40.8035 47.2104C40.8035 47.9236 40.7734 47.9807 40.3376 48.1233C39.5564 48.3801 40.1273 48.5085 42.5463 48.6084C46.0017 48.751 48.1201 48.3657 49.923 47.2532C50.4188 46.9539 51.6658 45.998 52.7024 45.1279C54.8058 43.3879 55.8876 42.6462 57.6604 41.7476L58.8473 41.1487L57.4049 41.0488C56.6237 41.0059 55.2264 40.8206 54.295 40.6636C53.3635 40.5068 51.8911 40.25 51.0198 40.1074C49.1869 39.7935 47.8647 39.7651 46.5726 40.0361ZM51.5305 41.8188C52.2667 41.99 53.4086 42.1755 54.0396 42.2183L55.2114 42.3181L53.5739 43.5732C51.0798 45.4846 49.4272 46.3547 47.3088 46.8682C46.2271 47.1392 41.3894 47.8381 41.2842 47.7383C41.149 47.6099 41.5847 46.2834 42.1105 45.2422C43.027 43.4307 44.7548 42.1328 46.9332 41.605C48.045 41.334 49.7878 41.4197 51.5305 41.8188Z" fill="#151618" fill-opacity="1.000000" fill-rule="nonzero"/>
	<path d="M13.0565 55.6406C12.876 63.3896 13.2971 66.011 15.3276 69.9141C16.3955 71.9595 18.1251 74.3503 19.3584 75.4739C19.6593 75.7476 19.8999 76.0066 19.8999 76.0498C19.8999 76.1074 16.1548 76.1218 11.5975 76.093C7.02527 76.0642 3.12976 76.093 2.9342 76.1362C2.75366 76.1794 2.51306 76.3811 2.42285 76.5684C2.28748 76.8708 2.30249 76.9717 2.52808 77.2166C2.79883 77.5046 2.96423 77.5046 36.4745 77.5046C59.4114 77.5046 70.2405 77.4614 70.451 77.3606C70.8422 77.1589 70.8422 76.4099 70.451 76.2083C70.2555 76.1218 67.1572 76.0642 61.4117 76.0642L52.6732 76.0642L53.5907 75.0129C56.2076 72.0603 57.9072 68.8196 59.0203 64.6858C59.3361 63.5481 59.3662 63.0583 59.4114 57.2971L59.4866 51.147L36.3241 51.147L13.1617 51.147L13.0565 55.6406Z" fill="#151618" fill-opacity="1.000000" fill-rule="nonzero"/>
	<path d="M6.81421 79.4548C11.8964 81.7461 19.7301 83.613 27.0376 84.2776C28.3308 84.405 28.9171 84.5039 28.6917 84.5605C28.3759 84.6453 28.3608 84.6594 28.6165 84.6736C28.7819 84.6877 29.8043 84.7585 30.8718 84.8433C36.375 85.2253 48.1633 84.999 47.8325 84.5039C47.7875 84.4333 47.8025 84.405 47.8927 84.4473C47.9679 84.4897 48.2385 84.4756 48.4791 84.405C48.9001 84.2917 48.9001 84.2917 48.3137 84.2634C47.9528 84.2493 48.7196 84.0796 50.1932 83.8391C54.7792 83.1038 58.5532 82.2129 61.6506 81.1379C63.4249 80.5156 66.8682 79.1013 67.1088 78.875C67.184 78.8044 55.4408 78.7478 36.2848 78.762L5.31055 78.7761L6.81421 79.4548Z" fill="#151618" fill-opacity="1.000000" fill-rule="nonzero"/>
	<path d="M65.1709 100.612Q65.2412 100.604 65.2764 100.604Q65.3379 100.604 65.4258 100.612L65.6104 100.612Q65.707 100.612 65.7773 100.621L65.874 100.621Q66.0498 100.621 66.1816 100.665Q66.3223 100.709 66.4805 100.709L66.5244 100.709Q66.542 100.7 66.6123 100.683Q66.6826 100.665 66.7617 100.647Q66.8496 100.639 66.9199 100.63Q66.9902 100.621 67.0166 100.621Q67.3154 100.586 67.5879 100.586Q67.8604 100.586 68.168 100.48L68.2646 100.48Q68.2646 100.489 68.3174 100.524L68.3701 100.56Q68.3789 100.56 68.4229 100.568Q68.4756 100.577 68.5371 100.586L68.6602 100.604Q68.7217 100.612 68.748 100.621L68.792 100.621Q68.8953 100.621 68.9723 100.576Q69.0133 100.552 69.0469 100.516Q69.0634 100.498 69.0786 100.479Q69.1526 100.386 69.1963 100.27Q69.218 100.208 69.2338 100.145Q69.2563 100.055 69.2666 99.9619Q69.2842 99.7949 69.293 99.6895L69.293 98.6611Q69.293 98.626 69.3193 98.5557Q69.3545 98.4854 69.3545 98.459L69.3545 98.3887Q69.3545 98.2656 69.3193 98.1777Q69.293 98.0811 69.293 97.958Q69.293 97.8613 69.3193 97.7646Q69.3297 97.7362 69.337 97.707Q69.3545 97.6369 69.3545 97.5625L69.3545 97.5186L69.249 97.4131Q69.1787 97.3428 69.1436 97.3252Q69.1172 97.334 69.0908 97.3516Q69.0732 97.3691 69.0469 97.3867Q69.0205 97.3955 69.0029 97.4131Q68.9941 97.4307 68.9062 97.501Q68.8271 97.5713 68.8096 97.6064Q68.8008 97.624 68.7744 97.6855Q68.7568 97.7383 68.7217 97.8086Q68.6953 97.8701 68.6602 97.9229Q68.6338 97.9668 68.625 97.9756Q68.6162 97.9932 68.5811 98.0371Q68.5459 98.0811 68.502 98.125L68.4141 98.2129Q68.3789 98.2568 68.3701 98.2656Q68.3701 98.2832 68.3438 98.3623Q68.3174 98.4414 68.3086 98.459Q68.3086 98.4766 68.2471 98.5557Q68.1855 98.6348 68.168 98.6611Q68.1592 98.6787 68.1152 98.7754Q68.0713 98.8721 68.0186 98.9863Q67.9746 99.0918 67.9219 99.1885Q67.8779 99.2852 67.8516 99.3115Q67.8076 99.3906 67.7461 99.4961Q67.6846 99.5928 67.6055 99.6895Q67.5659 99.7334 67.5242 99.7751Q67.4824 99.8169 67.4385 99.8564Q67.3506 99.9268 67.2539 99.9531L65.584 99.9531Q65.5752 99.9531 65.5225 99.9707Q65.4697 99.9795 65.3994 99.9971Q65.3379 100.006 65.2852 100.023Q65.2324 100.032 65.2236 100.032L64.582 100.032Q64.4766 100.032 64.3623 100.015Q64.2568 99.9971 64.1514 99.9531L63.7822 99.9531Q63.5273 99.9443 63.2285 99.9355Q62.9385 99.9268 62.6748 99.918Q62.4199 99.9092 62.3145 99.9092Q62.2617 99.9004 62.165 99.8916Q62.0771 99.874 61.9805 99.874Q61.8838 99.8652 61.8047 99.8564Q61.7344 99.8477 61.7256 99.8301Q61.708 99.8213 61.6641 99.7861L61.5762 99.7158Q61.541 99.6719 61.5059 99.6367Q61.4707 99.5928 61.4619 99.5752Q61.4619 99.5312 61.4531 99.417L61.4531 99.2676Q61.4531 98.9072 61.4883 98.582Q61.5234 98.2568 61.5234 97.9141Q61.5234 97.8701 61.5146 97.835Q61.5059 97.7998 61.4619 97.7295Q61.4619 97.668 61.4443 97.5098Q61.4355 97.3428 61.4268 97.167Q61.418 96.9824 61.4092 96.8242Q61.4004 96.666 61.4004 96.5957L61.4004 96.4814Q61.4092 96.3848 61.4355 96.1914Q61.4707 95.9893 61.4971 95.7783Q61.5322 95.5674 61.5586 95.3916Q61.5938 95.207 61.6025 95.1455Q61.6278 95.0094 61.7051 94.9166Q61.7625 94.8477 61.8486 94.8027Q61.9962 94.7228 62.1523 94.6988Q62.2194 94.6885 62.2881 94.6885L62.376 94.6885Q62.3936 94.6885 62.4551 94.7236Q62.5166 94.7588 62.5254 94.7852Q62.5605 94.7852 62.6484 94.7939L62.8418 94.8115Q62.9473 94.8115 63.0439 94.8203Q63.1406 94.8291 63.1846 94.8291Q63.2373 94.8467 63.3955 94.8467L64.0723 94.8467Q64.2217 94.8467 64.292 94.8291Q64.4103 94.8506 64.4891 94.9182Q64.5391 94.961 64.5732 95.0225Q64.6611 95.1807 64.6875 95.418Q64.7227 95.6465 64.7227 95.9189Q64.7227 96.1914 64.7402 96.4551Q64.7578 96.71 64.8105 96.9297Q64.8676 97.1335 65.0003 97.2541Q65.0107 97.2635 65.0215 97.2725Q65.0479 97.3164 65.127 97.3691Q65.2061 97.4131 65.2236 97.4131Q65.2412 97.4131 65.3115 97.3691Q65.3906 97.3164 65.3994 97.2725Q65.4961 97.123 65.5225 97Q65.5576 96.877 65.5576 96.7275Q65.5576 96.6924 65.5488 96.6309L65.5488 96.5078Q65.5488 96.4375 65.54 96.376L65.54 96.2705Q65.54 96.2441 65.5312 96.1562Q65.5225 96.0596 65.5049 95.9541Q65.4961 95.8398 65.4873 95.7432Q65.4785 95.6465 65.4785 95.6201Q65.4785 95.6025 65.4873 95.5586Q65.5049 95.5059 65.5137 95.4531Q65.5312 95.3916 65.54 95.3477L65.5576 95.3037Q65.5664 95.2773 65.584 95.1982Q65.6016 95.1104 65.6016 95.04Q65.6016 94.8906 65.5928 94.75Q65.584 94.6006 65.584 94.583Q65.5928 94.5215 65.6016 94.3545Q65.6191 94.1875 65.6367 93.9678Q65.6543 93.7393 65.6719 93.4932Q65.6895 93.2383 65.707 93.0186Q65.7246 92.7988 65.7334 92.6318Q65.7422 92.4648 65.751 92.4121Q65.751 92.3857 65.7422 92.333Q65.7334 92.2715 65.7334 92.2012Q65.7334 92.1572 65.7422 92.1221Q65.751 92.0869 65.751 92.0781Q65.7773 91.9814 65.7861 91.9551Q65.7949 91.9199 65.7949 91.8496Q65.7949 91.6475 65.7334 91.5596Q65.6719 91.4717 65.4785 91.4717Q65.3027 91.4717 65.2236 91.542Q65.2157 91.549 65.2083 91.5565Q65.141 91.6237 65.1094 91.7266Q65.0742 91.832 65.0654 91.9639Q65.0566 92.0957 65.0215 92.21Q65.0127 92.2188 64.9863 92.2539Q64.9688 92.2891 64.9424 92.333Q64.916 92.3682 64.8896 92.4121Q64.8721 92.4473 64.8721 92.4561Q64.8545 92.4824 64.8369 92.5879Q64.8193 92.6846 64.8018 92.7988Q64.7842 92.9131 64.7666 93.0186Q64.7578 93.1152 64.749 93.1416Q64.6875 93.291 64.626 93.5195Q64.5645 93.7393 64.4326 93.8535Q64.3711 93.8535 64.2129 93.8623Q64.0547 93.8711 63.8701 93.8799Q63.6943 93.8799 63.5273 93.8887Q63.3691 93.8975 63.3076 93.8975L62.5254 93.8975Q62.5166 93.8975 62.4551 93.915Q62.4023 93.9238 62.332 93.9414Q62.2617 93.9502 62.2002 93.9678Q62.1387 93.9766 62.1211 93.9766L61.6729 93.9766Q61.6377 93.9766 61.5938 93.9326Q61.5498 93.8799 61.5234 93.8535L61.5234 93.792Q61.5234 93.4844 61.5586 93.1943Q61.6025 92.9043 61.6025 92.623Q61.6025 92.21 61.5586 91.8145Q61.5234 91.4102 61.5234 91.0146Q61.5234 90.893 61.5384 90.7731Q61.5559 90.6333 61.5938 90.4961Q61.6641 90.2412 61.6729 89.96L61.6729 88.8701Q61.6729 88.8525 61.7168 88.835Q61.7607 88.8086 61.7959 88.8086L62.3145 88.8086Q62.3408 88.8086 62.4551 88.7998Q62.5781 88.7822 62.71 88.7734Q62.8506 88.7559 62.9648 88.7471Q63.0879 88.7295 63.123 88.7295L63.3779 88.7295Q63.3955 88.7295 63.4658 88.7471Q63.5361 88.7559 63.6152 88.7734Q63.6943 88.7822 63.7559 88.7998Q63.8262 88.8086 63.835 88.8086L64.292 88.8086Q64.3711 88.8174 64.5645 88.835Q64.7666 88.8438 64.9863 88.8613Q65.2061 88.8701 65.3994 88.8877Q65.6016 88.8965 65.6719 88.8965Q65.8125 88.9492 65.8916 89.0283Q65.9707 89.1074 66.0322 89.1953Q66.1025 89.2744 66.1641 89.3623Q66.2256 89.4502 66.3311 89.5205Q66.3486 89.5381 66.4014 89.5557Q66.4541 89.5645 66.4629 89.582Q66.4805 89.6172 66.5244 89.6611Q66.5771 89.7051 66.5859 89.7227Q66.5937 89.7321 66.6013 89.7416Q66.7497 89.9272 66.8584 90.1445Q66.9814 90.3643 67.1045 90.54L67.1484 90.584Q67.1836 90.6104 67.2188 90.6455Q67.2539 90.6807 67.2803 90.7158Q67.3154 90.7422 67.3154 90.751Q67.3682 90.8301 67.3857 90.9004L67.4385 91.041Q67.4648 91.1025 67.5088 91.1641Q67.5527 91.2256 67.6494 91.2871L67.7109 91.2871Q67.79 91.2871 67.8604 91.2695Q67.8697 91.266 67.8786 91.2616Q67.9365 91.2326 67.9746 91.1641L67.9746 90.6807Q67.9746 90.6367 67.9658 90.5225Q67.957 90.4082 67.9482 90.2852Q67.9395 90.1621 67.9219 90.0566Q67.9131 89.9424 67.9131 89.8984Q67.8955 89.7754 67.8691 89.5469Q67.8516 89.3184 67.8164 89.0811Q67.7812 88.8438 67.7197 88.6504Q67.667 88.4482 67.5791 88.3955Q67.5352 88.3604 67.4561 88.3164Q67.3857 88.2725 67.3066 88.2373Q67.2363 88.1934 67.1748 88.167Q67.1133 88.1406 67.1045 88.1406Q67.0957 88.1318 66.9902 88.123Q66.8848 88.1055 66.7441 88.0967Q66.6123 88.0879 66.4717 88.0791Q66.3398 88.0703 66.2695 88.0615L65.2236 88.0615Q65.1973 88.0615 65.0918 88.0527Q64.9951 88.0439 64.8809 88.0439Q64.7666 88.0352 64.6699 88.0264Q64.5732 88.0176 64.5469 88.0176L64.4326 88.0176Q64.3887 88.0176 64.3008 88.0264Q64.2129 88.0352 64.1162 88.0439Q64.0283 88.0439 63.9492 88.0527Q63.8701 88.0615 63.835 88.0615L61.8926 88.0615Q61.5498 88.0615 61.1982 88.0703Q60.8467 88.0791 60.4775 88.0791Q60.0293 88.0791 59.5898 88.0703Q59.1504 88.0527 58.7109 88.0176Q58.6934 88.0176 58.6406 87.9824Q58.6143 87.9648 58.5879 87.9385L58.5439 87.9385Q58.2803 87.9385 58.1133 87.9824Q57.9463 88.0176 57.7354 88.1406Q57.7178 88.1406 57.709 88.1494Q57.7002 88.1582 57.6826 88.167L57.6475 88.1846Q57.6475 88.3691 57.7354 88.4834Q57.7547 88.5062 57.7758 88.5273Q57.8602 88.6117 57.9727 88.668Q58.1133 88.7295 58.2803 88.7646Q58.4473 88.791 58.5879 88.8086Q58.6318 88.8174 58.7637 88.8262Q58.8955 88.835 59.0361 88.8438Q59.1855 88.8438 59.3174 88.8525Q59.4492 88.8613 59.502 88.8701Q59.5916 88.9391 59.6434 89.0297Q59.6576 89.0546 59.6689 89.0811Q59.7217 89.2041 59.7393 89.3447Q59.7568 89.4766 59.7656 89.626Q59.7718 89.7252 59.7956 89.8201Q59.8054 89.8597 59.8184 89.8984Q59.8184 89.9775 59.8096 90.1709Q59.8008 90.3643 59.792 90.5928Q59.7832 90.8125 59.7744 91.0146Q59.7656 91.208 59.7568 91.2871Q59.7568 91.3135 59.748 91.4189Q59.7393 91.5244 59.7305 91.6475Q59.7217 91.7705 59.7129 91.8848Q59.7041 91.9902 59.7041 92.0166L59.7041 92.0781Q59.7041 92.7549 59.7305 93.4404Q59.7568 94.126 59.7568 94.8291L59.7568 95.3037Q59.7568 95.3564 59.748 95.5146Q59.748 95.6641 59.7393 95.875Q59.7393 96.0859 59.7305 96.3232Q59.7217 96.5518 59.7129 96.7627Q59.7129 96.9736 59.7041 97.1318L59.7041 97.3252Q59.7041 97.8789 59.6865 98.3887Q59.6689 98.8984 59.5635 99.417Q59.5635 99.4434 59.5371 99.5049Q59.5195 99.5576 59.502 99.5752Q59.4404 99.6279 59.3438 99.7334Q59.2471 99.8301 59.2295 99.8301L58.3945 99.8301Q58.3154 99.8301 58.2275 99.8828Q58.1484 99.9268 58.0693 99.9971Q57.999 100.067 57.9463 100.155Q57.9023 100.234 57.9023 100.305Q57.8953 100.319 57.8995 100.327Q57.9006 100.329 57.9023 100.331Q57.9023 100.335 57.9038 100.337Q57.9094 100.349 57.9375 100.349Q58.0254 100.586 58.1396 100.63Q58.2627 100.683 58.5 100.683L58.5352 100.683Q58.5615 100.683 58.5879 100.674Q58.623 100.674 58.6494 100.665Q58.667 100.665 58.7285 100.656L58.8691 100.639Q58.9482 100.639 59.0098 100.63Q59.0801 100.621 59.1064 100.621Q59.1768 100.621 59.3789 100.612Q59.5898 100.604 59.8184 100.604Q60.0469 100.604 60.249 100.612Q60.46 100.621 60.5479 100.621Q60.6357 100.577 60.6885 100.568Q60.7412 100.56 60.8379 100.56Q60.9609 100.56 61.0488 100.577Q61.1455 100.595 61.2773 100.639L63.5801 100.639L64.6611 100.7L64.8721 100.621L64.9248 100.621Q64.9775 100.612 65.0391 100.612L65.1709 100.612ZM5.625 100.516L5.82715 100.516Q6.73914 100.516 7.6352 100.635Q7.68041 100.641 7.72559 100.647Q8.0332 100.691 8.30566 100.735Q8.58691 100.788 8.91211 100.788L8.92969 100.788Q9.10547 100.674 9.21973 100.568Q9.23629 100.552 9.25046 100.533Q9.33398 100.425 9.33398 100.252Q9.33398 100.174 9.31241 100.102Q9.29044 100.028 9.24609 99.9619Q9.23162 99.9378 9.21421 99.916Q9.13645 99.8188 9 99.7686Q8.93848 99.7686 8.78906 99.7598Q8.63965 99.751 8.46387 99.7422Q8.29688 99.7334 8.13867 99.7246Q7.98926 99.7158 7.91895 99.707Q7.76953 99.6982 7.60254 99.6807Q7.44434 99.6631 7.3125 99.6104Q7.22821 99.5766 7.16189 99.5214Q7.12447 99.4902 7.09277 99.4521Q7.01367 99.3467 7.01367 99.1621Q7.01367 98.5469 7.04004 97.9316Q7.0752 97.3164 7.0752 96.71Q7.0752 96.209 7.04004 95.7344Q7.01367 95.251 7.01367 94.7676Q7.01367 94.3193 7.0752 93.8975Q7.14551 93.4668 7.14551 93.0186Q7.14551 92.8955 7.1543 92.5527Q7.16309 92.2012 7.16309 91.8057Q7.16309 91.4102 7.1543 91.0674Q7.14551 90.7246 7.14551 90.584Q7.1543 90.5576 7.16309 90.4961Q7.17188 90.4258 7.17188 90.3555Q7.18066 90.2852 7.18945 90.2236Q7.19824 90.1533 7.20703 90.127Q7.20703 90.1182 7.25098 90.0215Q7.29492 89.916 7.33008 89.8545Q7.34766 89.8105 7.40918 89.7314Q7.44434 89.6963 7.4707 89.6611Q7.47949 89.6436 7.61133 89.6172Q7.74316 89.582 7.81348 89.582L8.65723 89.582Q8.69238 89.582 8.79785 89.626Q8.91211 89.6611 8.92969 89.6611Q9.18457 89.6963 9.4043 89.6963Q9.62402 89.6963 9.85254 89.793Q10.2129 89.9512 10.5469 90.1797Q10.7313 90.3027 10.8598 90.4689Q10.9701 90.6116 11.0391 90.7861Q11.0918 90.9092 11.1445 91.0586Q11.1973 91.1992 11.2588 91.3311Q11.3291 91.4629 11.417 91.5771Q11.4802 91.6519 11.5584 91.704Q11.5999 91.7316 11.6455 91.7529Q11.6631 91.7705 11.6895 91.7793Q11.7158 91.8057 11.7422 91.8057Q11.7861 91.8057 11.8301 91.7881Q11.8828 91.7617 11.918 91.6914Q11.9443 91.4541 11.9619 91.2695Q11.9795 91.085 11.9795 90.8564L11.9795 90.7246Q11.9795 90.7158 11.9707 90.6719Q11.9619 90.6191 11.9443 90.5664Q11.9355 90.5049 11.9268 90.4609Q11.918 90.417 11.918 90.3994Q11.9004 90.2852 11.8652 90.0039Q11.8301 89.7227 11.7949 89.4062Q11.7686 89.0898 11.7422 88.8086Q11.7158 88.5186 11.707 88.4131Q11.6432 88.2481 11.5245 88.183Q11.4472 88.1406 11.3467 88.1406L11.2412 88.1406Q11.0918 88.1934 10.9336 88.3252Q10.7842 88.457 10.626 88.5977Q10.4678 88.7295 10.3096 88.835Q10.1514 88.9316 10.002 88.9316L8.41113 88.9141Q8.01562 88.9141 7.75195 88.9229Q7.48828 88.9229 7.3125 88.9316Q7.14551 88.9404 7.04004 88.958Q6.94336 88.9756 6.87305 89.002Q6.83789 89.002 6.72363 88.9932Q6.61816 88.9844 6.48633 88.9756Q6.35449 88.958 6.24023 88.9492Q6.13477 88.9316 6.09961 88.9316Q6.08203 88.9229 6.0293 88.9229Q5.97656 88.9141 5.90625 88.9141L5.66895 88.9141Q5.43164 88.9141 5.23828 88.958Q5.05371 89.002 4.8252 89.002L4.54395 89.002Q4.53516 89.002 4.49121 88.9932Q4.45605 88.9844 4.41211 88.9756Q4.37695 88.958 4.3418 88.9492L4.30664 88.9316Q3.94629 88.8701 3.57715 88.8525Q3.20801 88.835 2.83008 88.835Q2.62793 88.835 2.42578 88.8438Q2.22363 88.8525 2.03906 88.8525Q1.99688 88.8396 1.95948 88.8182Q1.8956 88.7817 1.8457 88.7207Q1.7666 88.6152 1.6875 88.5186Q1.64795 88.4702 1.604 88.4263Q1.56006 88.3823 1.51172 88.3428Q1.50428 88.3361 1.4964 88.33Q1.41119 88.2637 1.27441 88.2637Q1.21941 88.2637 1.17293 88.2836Q1.13773 88.2987 1.10742 88.3252Q1.03711 88.3779 0.984375 88.457Q0.94043 88.5361 0.905273 88.6328Q0.878906 88.7207 0.852539 88.791Q0.852539 88.8086 0.817383 88.8877Q0.791016 88.9668 0.755859 89.0635Q0.720703 89.1602 0.685547 89.2393Q0.65918 89.3184 0.65918 89.3359Q0.650391 89.3623 0.632812 89.4502Q0.615234 89.5293 0.588867 89.6348Q0.571289 89.7314 0.553711 89.8193Q0.536133 89.9072 0.536133 89.9336Q0.518555 89.96 0.483398 90.0654Q0.457031 90.1709 0.421875 90.2939Q0.386719 90.417 0.351562 90.5312Q0.325195 90.6367 0.316406 90.6631L0.316406 90.7246Q0.316406 90.7686 0.307617 90.8301L0.307617 91.252Q0.316406 91.3135 0.316406 91.375L0.316406 91.4541Q0.342773 91.5332 0.386719 91.5947L0.387761 91.596Q0.431905 91.6475 0.536133 91.6475Q0.613188 91.6475 0.677048 91.6184Q0.729733 91.5945 0.773438 91.5508Q0.870117 91.4541 0.94043 91.3311Q1.01074 91.1992 1.06348 91.0674Q1.125 90.9268 1.18652 90.8477Q1.19531 90.8389 1.2832 90.7334Q1.37988 90.6279 1.49414 90.4873Q1.6084 90.3467 1.72266 90.2148Q1.8457 90.0742 1.91602 89.9951L1.98633 89.9248Q2.03906 89.8721 2.03906 89.8545Q2.14991 89.7783 2.27168 89.7512Q2.30439 89.744 2.33789 89.7402Q2.49609 89.7139 2.62793 89.6611Q2.69824 89.6699 2.85645 89.6699L3.5332 89.6699Q3.7002 89.6699 3.75293 89.6611Q3.77051 89.6611 3.84082 89.6523Q3.91113 89.6348 3.98145 89.626Q4.06055 89.6084 4.12207 89.5996Q4.19238 89.582 4.20996 89.582Q4.25391 89.582 4.35938 89.5908Q4.47363 89.5996 4.58789 89.6172Q4.71094 89.626 4.81641 89.6436Q4.93066 89.6523 4.97461 89.6611Q5.09766 89.7754 5.16797 89.8984Q5.24707 90.0127 5.29102 90.1885Q5.29102 90.3027 5.28223 90.6016L5.28223 91.2256Q5.28223 91.5508 5.27344 91.8584L5.27344 92.2891Q5.27344 92.6582 5.28223 93.0273Q5.29102 93.3965 5.29102 93.7832Q5.29102 94.6973 5.28223 95.6201Q5.27344 96.543 5.22949 97.457Q5.22949 97.4834 5.21191 97.5889Q5.19434 97.6943 5.17676 97.8086Q5.16797 97.9229 5.15039 98.0195Q5.1416 98.1162 5.1416 98.1426L5.1416 99.1182Q5.1416 99.2533 5.10981 99.3804Q5.0837 99.4849 5.03613 99.584Q5.03438 99.5864 5.03256 99.5889Q4.98902 99.6469 4.91309 99.6807Q4.84277 99.7158 4.74609 99.7422Q4.6582 99.7598 4.57031 99.7686L4.42969 99.7686Q4.3418 99.7861 4.12207 99.8037Q3.90234 99.8125 3.65625 99.8301Q3.41895 99.8389 3.19922 99.8477Q2.97949 99.8564 2.8916 99.8652Q2.87531 99.8726 2.86026 99.882Q2.78603 99.9284 2.74219 100.023Q2.68945 100.138 2.68945 100.252Q2.68945 100.362 2.7417 100.434Q2.76053 100.46 2.78613 100.48Q2.88281 100.56 3.01465 100.604Q3.0224 100.606 3.03019 100.608Q3.15476 100.639 3.28711 100.639Q3.43652 100.647 3.5332 100.647Q3.99023 100.647 4.44727 100.63Q4.9043 100.621 5.35254 100.577Q5.36133 100.577 5.40527 100.568L5.49316 100.551Q5.53711 100.533 5.57227 100.524Q5.61621 100.516 5.625 100.516ZM40.4209 93.3965Q40.4648 93.4932 40.4912 93.6602Q40.4824 93.7656 40.4736 93.9678L40.4736 97.123Q40.4824 97.3076 40.4912 97.4131Q40.4912 97.8877 40.5615 98.3799Q40.6406 98.8633 40.8252 99.2852Q40.8779 99.4082 40.9482 99.5049Q41.0273 99.5928 41.1064 99.6719Q41.1855 99.751 41.2646 99.8389Q41.3438 99.918 41.4141 100.032L41.4756 100.076Q41.5283 100.129 41.6338 100.208Q41.7393 100.278 41.8447 100.357Q41.959 100.437 42.0469 100.498Q42.1348 100.551 42.1611 100.56Q42.2335 100.603 42.3119 100.623Q42.3286 100.627 42.3457 100.63Q42.4424 100.656 42.5391 100.665L42.75 100.7Q42.8133 100.711 42.8734 100.731Q42.9135 100.744 42.9521 100.762L43.4795 100.762Q43.6465 100.762 43.7783 100.744Q43.9102 100.727 44.0332 100.7Q44.1562 100.683 44.2793 100.656Q44.4111 100.639 44.5781 100.621L44.833 100.621Q44.8418 100.612 44.9033 100.577Q44.9648 100.533 45.0352 100.48Q45.1143 100.428 45.1846 100.384L45.29 100.305Q45.5713 100.059 45.8174 99.8213Q46.0123 99.6398 46.1507 99.4224Q46.1932 99.3555 46.2305 99.2852Q46.248 99.2588 46.3008 99.1621Q46.3535 99.0654 46.4062 98.9512Q46.4678 98.8369 46.5117 98.7402Q46.5557 98.6436 46.5732 98.626Q46.582 98.6084 46.6436 98.5205Q46.7051 98.4238 46.7051 98.3975Q46.7139 98.3975 46.7227 98.3447Q46.7402 98.2832 46.7402 98.2217Q46.749 98.1514 46.7578 98.0898Q46.7666 98.0195 46.7842 98.002Q46.7842 97.9844 46.8018 97.9229Q46.8193 97.8525 46.8369 97.7734Q46.8633 97.6943 46.8809 97.6328Q46.8984 97.5625 46.9072 97.5361Q46.9336 97.4482 46.9336 97.3691L46.9512 97.2109Q46.96 97.123 46.9775 97.0439Q46.9951 96.9561 47.0391 96.8682Q47.0479 96.7715 47.0566 96.5342Q47.0654 96.2969 47.0742 96.0332Q47.0918 95.7607 47.1006 95.5234Q47.1094 95.2861 47.1182 95.1895L47.1182 94.46Q47.1182 94.4512 47.1445 94.3633Q47.1797 94.2754 47.1797 94.249L47.1797 94.0996Q47.1797 93.959 47.1445 93.8535Q47.1182 93.748 47.1182 93.6074Q47.1182 93.529 47.1397 93.4571Q47.1617 93.3839 47.2061 93.3174Q47.2588 93.2383 47.3305 93.1845Q47.3783 93.1486 47.4346 93.124Q47.5576 93.0713 47.6982 93.0449Q47.8477 93.0186 47.9707 92.9746Q48.1025 92.9219 48.1816 92.834L48.1826 92.8329Q48.2695 92.7363 48.2695 92.5615Q48.2695 92.5439 48.2607 92.4736Q48.2607 92.4033 48.2432 92.377Q48.1289 92.2979 47.9619 92.2715Q47.7949 92.2451 47.6191 92.2451Q47.5049 92.2451 47.3906 92.2539Q47.2852 92.2627 47.2061 92.2627L46.6611 92.2627Q46.5645 92.2627 46.4238 92.2891Q46.292 92.3154 46.2217 92.3154Q46.0723 92.3154 45.9141 92.3066Q45.7559 92.2891 45.5977 92.2891Q45.3779 92.2891 45.1758 92.333Q45.1115 92.3442 45.0534 92.3696Q44.9289 92.4241 44.833 92.5439Q44.8242 92.5615 44.8154 92.5879Q44.8066 92.6055 44.8066 92.623L44.8066 92.7021Q44.8154 92.7197 44.833 92.7637Q44.9824 92.957 45.1582 93.0186Q45.3428 93.0801 45.5625 93.124Q45.5977 93.1416 45.6416 93.1416Q45.6768 93.1416 45.7031 93.1328Q45.7383 93.124 45.7822 93.124Q45.835 93.124 45.8965 93.1855Q45.9141 93.1855 45.9316 93.2383Q45.9492 93.2822 45.958 93.3262Q45.9932 93.3613 46.0459 93.4932Q46.0986 93.6162 46.1162 93.6602Q46.1162 93.7393 46.125 93.9326Q46.1426 94.1172 46.1602 94.3281Q46.1865 94.5391 46.2041 94.7236Q46.2217 94.9082 46.2305 94.9785L46.2305 95.7432Q46.2305 95.7607 46.2217 95.8135Q46.2129 95.8574 46.2041 95.9189Q46.2041 95.9717 46.1953 96.0244Q46.1865 96.0684 46.1865 96.0771Q46.1602 96.3672 46.1514 96.6748Q46.1426 96.9824 46.125 97.2988Q46.1074 97.6064 46.0547 97.9053Q46.002 98.2041 45.8965 98.4766Q45.8965 98.4941 45.8789 98.5557Q45.8613 98.6172 45.835 98.6875Q45.8174 98.749 45.791 98.8105Q45.7734 98.8721 45.7646 98.8896Q45.6504 99.0654 45.457 99.2852Q45.2916 99.4743 45.0837 99.5574Q45.0597 99.567 45.0352 99.5752Q44.9912 99.584 44.9121 99.6016Q44.833 99.6104 44.7627 99.6279Q44.666 99.6543 44.5781 99.6807L44.4375 99.6807Q44.4287 99.6807 44.376 99.6982Q44.332 99.7158 44.2705 99.7422L44.165 99.7949Q44.1123 99.8213 44.1035 99.8301L43.9805 99.8301Q43.8838 99.8301 43.8047 99.8037Q43.7256 99.7773 43.6553 99.751Q43.585 99.7158 43.5059 99.6895Q43.4268 99.6543 43.3301 99.6455L43.3301 99.6452Q43.3288 99.6367 43.2686 99.6367Q43.2246 99.6367 43.1631 99.6104Q43.1016 99.5752 43.084 99.5752Q42.9785 99.5488 42.8555 99.4521Q42.7412 99.3555 42.627 99.2324Q42.5127 99.1006 42.416 98.9688Q42.3281 98.8369 42.293 98.749Q42.2578 98.6875 42.2227 98.582Q42.1875 98.4766 42.1523 98.3623Q42.126 98.248 42.0996 98.1426Q42.0732 98.0283 42.0645 97.958Q42.0645 97.9141 42.0557 97.8086Q42.0557 97.7031 42.0469 97.5889Q42.0381 97.4658 42.0293 97.3604Q42.0293 97.2461 42.0205 97.2021Q42.0205 97.1846 42.0117 97.1143Q42.0029 97.0439 41.9854 96.9648Q41.9766 96.8857 41.959 96.8154Q41.9502 96.7451 41.9502 96.7275L41.9502 96.543L41.9854 96.4023Q42.0205 96.2969 42.0205 96.2529L42.0205 95.4795Q42.0205 95.4531 42.0293 95.374Q42.0381 95.2949 42.0381 95.207Q42.0469 95.1104 42.0557 95.0312Q42.0645 94.9521 42.0645 94.9346Q42.0688 94.9316 42.0725 94.928Q42.0908 94.9097 42.0908 94.873Q42.0996 94.8203 42.0996 94.7939Q42.0996 94.6709 42.0557 94.583Q42.0205 94.4951 42.0205 94.3545Q42.0205 94.2402 42.0293 94.0908Q42.0381 93.9414 42.0645 93.792Q42.0996 93.6338 42.1523 93.502Q42.2051 93.3613 42.293 93.2646Q42.3721 93.168 42.5127 93.1152Q42.6621 93.0537 42.8027 92.9922Q42.9521 92.9307 43.0576 92.8516Q43.0941 92.8242 43.118 92.7884Q43.1631 92.7207 43.1631 92.623Q43.1631 92.4875 43.0962 92.4088Q43.0547 92.3599 42.9873 92.333Q42.8203 92.2627 42.6182 92.2627L42.5566 92.2627Q42.5391 92.2627 42.46 92.2891Q42.3809 92.3154 42.3545 92.3154Q42.1875 92.3418 42.0469 92.3506L41.7656 92.3682Q41.625 92.377 41.4756 92.377L40.8252 92.377Q40.5703 92.333 40.4121 92.3154Q40.2539 92.2891 40.1045 92.2891Q40.0078 92.2891 39.8936 92.2979Q39.7881 92.3066 39.7002 92.3154Q39.6562 92.333 39.5771 92.3506Q39.498 92.3682 39.4805 92.377Q39.4453 92.4033 39.4365 92.4648L39.4365 92.5352Q39.4365 92.5879 39.4629 92.7021Q39.4893 92.8076 39.542 92.8691Q39.5684 92.8867 39.665 92.9131Q39.7283 92.9236 39.7884 92.9437Q39.8285 92.957 39.8672 92.9746L40.1309 93.1064Q40.2363 93.1592 40.3066 93.2295Q40.377 93.291 40.4209 93.3965ZM12.6211 100.524Q12.6738 100.586 12.6738 100.621Q12.7266 100.639 12.832 100.656Q12.9375 100.683 13.0518 100.7Q13.166 100.727 13.2627 100.744Q13.3682 100.762 13.4121 100.762Q13.4561 100.762 13.5615 100.727Q13.667 100.691 13.7021 100.665Q13.7197 100.665 13.7725 100.674Q13.8252 100.683 13.8867 100.683Q13.9436 100.683 13.9479 100.668L13.9482 100.665Q13.9746 100.665 14.0361 100.656Q14.0977 100.656 14.1592 100.647Q14.2295 100.647 14.2822 100.639Q14.3438 100.63 14.3701 100.621L17.7012 100.621Q17.7363 100.621 17.8945 100.612Q18.0615 100.604 18.2373 100.595Q18.4219 100.586 18.5801 100.577Q18.7383 100.56 18.7822 100.542L19.0986 100.542Q19.1689 100.56 19.3359 100.568Q19.5029 100.577 19.6875 100.586Q19.8721 100.595 20.0303 100.604Q20.1973 100.612 20.2588 100.621Q20.2863 100.619 20.3129 100.613Q20.4054 100.593 20.4873 100.524Q20.4929 100.52 20.4984 100.516Q20.6054 100.43 20.6807 100.305Q20.7598 100.173 20.8037 100.032Q20.8477 99.8828 20.8477 99.7686L20.8477 99.7422Q20.8477 99.707 20.8389 99.54Q20.8301 99.373 20.8213 99.1885Q20.8213 98.9951 20.8125 98.8281Q20.8037 98.6611 20.8037 98.6172L20.8037 98.4326Q20.8037 98.3271 20.7773 98.2305Q20.7675 98.1909 20.7427 98.1662Q20.7015 98.125 20.6191 98.125L20.6016 98.125Q20.5998 98.125 20.5984 98.1257Q20.5928 98.1285 20.5928 98.1426Q20.5752 98.1602 20.5576 98.1689Q20.5312 98.1953 20.5312 98.2041Q20.5225 98.2217 20.4873 98.2744Q20.4609 98.3184 20.4258 98.3799L20.3555 98.4854Q20.3291 98.5293 20.3203 98.5557Q20.3115 98.5732 20.2764 98.6172L20.1973 98.6963L20.1094 98.7666Q20.0654 98.793 20.0566 98.793Q20.0479 98.8193 19.9951 98.9072Q19.9424 98.9863 19.9072 99.0127Q19.8369 99.1621 19.793 99.3115Q19.749 99.4609 19.6523 99.6016Q19.626 99.6543 19.5996 99.6807Q19.5732 99.6982 19.5469 99.707Q19.5205 99.707 19.4766 99.7158Q19.4414 99.7158 19.3799 99.7422Q19.3711 99.7422 19.3359 99.7773Q19.3008 99.8125 19.248 99.8564L19.1602 99.9268Q19.1162 99.9531 19.0986 99.9531L18.5098 99.9531Q18.4922 99.9531 18.4307 99.9707Q18.3779 99.9795 18.3076 99.9971Q18.2373 100.006 18.1758 100.023Q18.1143 100.032 18.0967 100.032L16.7607 100.032Q16.7432 100.006 16.6992 99.9795Q16.6553 99.9531 16.6377 99.9531Q16.418 99.8916 16.2686 99.8652Q16.1191 99.8389 16.0225 99.7861Q16.0051 99.7766 15.9894 99.7649Q15.9179 99.7113 15.8818 99.6104Q15.8379 99.4873 15.8379 99.2236Q15.8379 98.7051 15.873 98.2305Q15.9082 97.7471 15.9082 97.2285L15.9082 96.9297L16.0312 96.7891L16.084 96.7891Q16.1279 96.7803 16.1807 96.7803L16.2949 96.7803Q16.3564 96.7715 16.3828 96.7715Q16.4268 96.7715 16.5059 96.7803L16.6641 96.7803Q16.752 96.7803 16.8135 96.7891L16.9102 96.7891Q16.9453 96.7891 17.0508 96.8066Q17.165 96.8154 17.2881 96.8418Q17.4199 96.8594 17.5342 96.8857Q17.6484 96.9121 17.7012 96.9297L17.8242 97Q17.8945 97.0264 17.9209 97.0615Q17.9209 97.1055 17.9297 97.2021Q17.9385 97.2988 17.9473 97.4131Q17.9561 97.5186 17.9648 97.6152Q17.9824 97.7031 17.9912 97.7295Q18 97.8086 18.0352 97.9053Q18.0703 97.9932 18.123 98.0811Q18.1758 98.1689 18.2373 98.2305Q18.2855 98.2718 18.3391 98.2807Q18.3539 98.2832 18.3691 98.2832Q18.4746 98.2832 18.5449 98.248Q18.624 98.2129 18.7207 98.1426Q18.7295 98.1162 18.7383 98.0459Q18.7471 97.9756 18.7471 97.9053Q18.7559 97.8262 18.7646 97.7646Q18.7734 97.7031 18.7822 97.6855L18.7822 96.9297Q18.7822 96.8594 18.791 96.6836Q18.7998 96.499 18.8086 96.2969Q18.8174 96.0947 18.8262 95.9102Q18.835 95.7256 18.8438 95.6465Q18.8877 95.5762 18.9053 95.5059Q18.9229 95.4268 18.9229 95.3477L18.9229 95.0225Q18.9229 94.9082 18.8877 94.8203Q18.8781 94.7852 18.8557 94.7628Q18.8166 94.7236 18.7383 94.7236Q18.624 94.7236 18.5098 94.75Q18.4217 94.7703 18.3598 94.8219Q18.3413 94.8373 18.3252 94.8555Q18.3076 94.873 18.29 94.9961Q18.2725 95.1104 18.2549 95.1455Q18.2461 95.1543 18.2021 95.2422Q18.167 95.3301 18.1143 95.4531Q18.0615 95.5674 18.0088 95.6904Q17.9561 95.8047 17.9209 95.8662Q17.9121 95.875 17.8945 95.9102Q17.877 95.9453 17.8506 95.9893Q17.8242 96.0332 17.8066 96.0771Q17.7891 96.1211 17.7803 96.1387Q17.4639 96.1826 17.2354 96.1914Q17.0156 96.2002 16.7168 96.2002L16.2334 96.2002Q16.1367 96.1738 16.0488 96.0947Q15.9697 96.0156 15.9082 95.9365Q15.8994 95.9014 15.8818 95.7959L15.8643 95.5674Q15.8555 95.4443 15.8467 95.3389Q15.8379 95.2334 15.8379 95.1895L15.8379 95.0752Q15.8379 94.9873 15.8555 94.7676Q15.873 94.5479 15.8906 94.3018Q15.917 94.0557 15.9346 93.8359Q15.9609 93.6162 15.9697 93.5195L16.0576 93.291Q16.1104 93.168 16.1719 93.0713Q16.1982 93.035 16.2296 93.0037Q16.2817 92.9515 16.3477 92.9131Q16.4531 92.8516 16.6113 92.8516L16.6377 92.8516Q16.6641 92.8516 16.7783 92.8604Q16.9014 92.8604 17.042 92.8691Q17.1826 92.8691 17.2969 92.8779Q17.4199 92.8867 17.4463 92.8955L17.4727 92.8955Q17.499 92.8955 17.5605 92.8779Q17.6221 92.8516 17.6572 92.8516L17.7012 92.8516Q17.7188 92.8604 17.7891 92.8867Q17.8594 92.9043 17.9385 92.9219Q18.0264 92.9395 18.0967 92.957Q18.167 92.9746 18.1934 92.9746Q18.1934 92.9834 18.2373 92.9922Q18.29 93.001 18.3428 93.0186Q18.4043 93.0273 18.4482 93.0361Q18.501 93.0449 18.5098 93.0449L18.5151 93.0452Q18.5559 93.0497 18.5889 93.124Q18.6064 93.1416 18.6592 93.2207Q18.7207 93.2998 18.7822 93.3965Q18.8525 93.4844 18.9053 93.5635Q18.9668 93.6426 18.9844 93.6602L19.0811 93.7568Q19.1777 93.8359 19.1953 93.8711Q19.2559 93.962 19.2956 94.0613Q19.3135 94.106 19.3271 94.1523Q19.3711 94.3018 19.4238 94.4512Q19.4766 94.6006 19.5557 94.7412Q19.6348 94.873 19.7842 94.9785Q19.7842 94.9839 19.7867 94.9877Q19.7923 94.9961 19.8105 94.9961L19.8457 94.9961Q19.8545 94.9961 19.8589 94.9917Q19.8633 94.9873 19.8633 94.9785Q19.8809 94.9785 19.9248 94.9346Q19.9688 94.8818 19.9863 94.8555Q19.9951 94.7939 20.0127 94.6533Q20.0391 94.5039 20.0566 94.3545Q20.083 94.1963 20.1006 94.0645Q20.1182 93.9238 20.1182 93.8711L20.1182 92.8516Q20.0654 92.6494 19.9512 92.5176Q19.9438 92.5085 19.9359 92.5001Q19.82 92.377 19.5732 92.377L15.4424 92.377Q15.3984 92.3682 15.293 92.3594Q15.1875 92.3506 15.0645 92.3418L14.8359 92.3242Q14.7305 92.3154 14.6953 92.3066L14.4668 92.3066Q14.0537 92.3066 13.6494 92.3506Q13.2451 92.3945 12.8232 92.377Q12.7881 92.4824 12.7793 92.5439L12.7793 92.6846Q12.7793 92.853 12.8634 92.9328Q12.8978 92.9655 12.9463 92.9834Q13.1133 93.0449 13.3594 93.0449L13.7197 93.0449Q13.8604 93.0449 13.9834 93.0625Q14.1152 93.0801 14.2119 93.1416Q14.2268 93.1497 14.2408 93.1591Q14.3181 93.2106 14.3701 93.2998Q14.4316 93.4053 14.4316 93.5811L14.4316 97.4131Q14.4229 97.4395 14.4053 97.5098Q14.3877 97.5801 14.3701 97.668Q14.3613 97.7471 14.3525 97.8174Q14.3438 97.8877 14.3438 97.9141L14.3438 97.9756Q14.3438 98.2832 14.3525 98.5645Q14.3701 98.8369 14.3701 99.1445L14.3701 99.2852Q14.3701 99.4082 14.3438 99.5488Q14.3356 99.6097 14.3051 99.6555Q14.2694 99.7091 14.2031 99.7422L14.1592 99.7598Q14.124 99.7773 14.0713 99.7949Q14.0273 99.8037 13.9746 99.8213Q13.9307 99.8301 13.9043 99.8301L13.2803 99.8301Q13.2363 99.8301 13.1309 99.8564Q13.0342 99.874 13.0166 99.8916Q12.9902 99.918 12.9199 99.9795L12.7793 100.12Q12.709 100.19 12.6475 100.261Q12.5859 100.331 12.5684 100.366L12.5684 100.41Q12.5771 100.454 12.6211 100.524ZM54.1657 93.6029Q54.1503 93.6158 54.1318 93.625Q54.0879 93.6865 54.0176 93.8359Q53.9561 93.9854 53.877 94.1523Q53.7979 94.3105 53.7012 94.4688Q53.6133 94.6182 53.5254 94.6885Q53.3057 94.8555 53.165 94.9521Q53.0332 95.04 52.9277 95.04Q52.8996 95.04 52.8743 95.0316Q52.8363 95.0189 52.8047 94.9873Q52.7607 94.9346 52.6992 94.8467Q52.6729 94.8027 52.5762 94.6357Q52.4795 94.4688 52.3652 94.2754Q52.2598 94.0732 52.1631 93.9062Q52.0752 93.7305 52.0488 93.6865Q52.0137 93.6426 51.9609 93.5371Q51.9082 93.4229 51.9082 93.3525Q51.9082 93.1943 51.9785 93.1416Q52.0488 93.0889 52.1367 93.0537Q52.1908 93.0321 52.2382 93.0005Q52.2679 92.9807 52.2949 92.957Q52.3652 92.8867 52.3652 92.7109Q52.3652 92.5321 52.2827 92.4771Q52.2719 92.4699 52.2598 92.4648Q52.1631 92.4121 51.9521 92.4121Q51.3984 92.4121 50.8447 92.4473Q50.2998 92.4824 49.7373 92.4824L49.6934 92.4824Q49.6758 92.4824 49.6318 92.4736Q49.5967 92.4648 49.5439 92.4561L49.4561 92.4385L49.4209 92.4297L49.3857 92.4297Q49.2891 92.4297 49.2451 92.4561L49.2441 92.4567Q49.2012 92.4835 49.2012 92.5791Q49.2012 92.6494 49.21 92.7197Q49.2108 92.7228 49.2118 92.7258Q49.2311 92.7834 49.2979 92.8252Q49.4209 92.9395 49.5527 93.0273Q49.6846 93.1152 49.8076 93.2031Q49.9395 93.291 50.0625 93.3965Q50.1855 93.4932 50.2998 93.625Q50.425 93.7766 50.5107 93.948Q50.5393 94.0051 50.5635 94.0645Q50.6689 94.3018 50.8447 94.5215Q50.8711 94.5479 50.9062 94.5742Q50.915 94.5918 50.9238 94.6006Q50.9414 94.6006 50.9502 94.6094L50.9678 94.627Q50.9766 94.6445 50.9854 94.6973L51.0557 94.9082Q51.0732 94.9521 51.0908 94.9609Q51.1348 95.0225 51.1963 95.1719Q51.2666 95.3213 51.3018 95.3916Q51.3105 95.4004 51.3457 95.4707Q51.3896 95.5322 51.4336 95.6113L51.5215 95.752Q51.5654 95.8223 51.5742 95.8486Q51.6797 96.1035 51.8027 96.3057Q51.9258 96.499 52.1719 96.6484L52.1719 96.7275Q52.1807 96.7803 52.1807 96.8418Q52.1895 96.9033 52.1895 96.9561Q52.1982 97.0088 52.1982 97.0352Q52.1982 97.0615 52.1895 97.123Q52.1895 97.1758 52.1807 97.2373Q52.1807 97.2988 52.1719 97.3516L52.1719 97.3955Q52.1719 97.4043 52.1367 97.457Q52.1104 97.501 52.0664 97.5625Q52.0312 97.624 51.9785 97.6943Q51.9346 97.7559 51.9082 97.791Q51.8994 97.8086 51.8379 97.8701Q51.7764 97.9229 51.7588 97.9492Q51.6006 98.248 51.4336 98.5381Q51.2754 98.8193 51.0469 99.083Q51.0029 99.127 50.8887 99.2324Q50.7832 99.3379 50.6602 99.4521L50.4404 99.6719Q50.335 99.7686 50.2998 99.8037Q50.168 99.8916 50.0186 99.9531Q49.8691 100.006 49.7197 100.067Q49.5791 100.129 49.4385 100.208Q49.3066 100.287 49.2012 100.41L49.2012 100.48Q49.2012 100.507 49.21 100.568Q49.2158 100.586 49.2275 100.598Q49.251 100.621 49.2979 100.621L51.7588 100.621Q51.8379 100.604 51.8906 100.568Q51.8955 100.565 51.9 100.561Q51.9521 100.515 51.9521 100.41Q51.9274 100.372 51.8958 100.34Q51.8264 100.271 51.7236 100.234Q51.583 100.173 51.4424 100.138Q51.3018 100.094 51.1963 100.041Q51.1476 100.017 51.1214 99.9774Q51.0908 99.9315 51.0908 99.8652L51.0908 99.8037Q51.1084 99.7861 51.126 99.7422Q51.1523 99.6895 51.1699 99.6807Q51.1963 99.6455 51.3018 99.4785Q51.416 99.3115 51.5391 99.1182Q51.6709 98.9248 51.7764 98.7666Q51.8818 98.5996 51.9082 98.5557Q51.9609 98.459 52.0137 98.3271Q52.0664 98.1953 52.1367 98.0811Q52.207 97.958 52.3037 97.8789Q52.3279 97.8569 52.3553 97.8405Q52.4377 97.791 52.5498 97.791Q52.6289 97.791 52.7344 97.9229Q52.8398 98.0547 52.9541 98.2568Q53.0771 98.459 53.1826 98.7051Q53.2969 98.9512 53.3848 99.1885Q53.4814 99.417 53.5342 99.6104Q53.5869 99.8037 53.5869 99.8916Q53.5869 100.05 53.5166 100.111Q53.4551 100.173 53.376 100.217Q53.3057 100.252 53.2354 100.305Q53.1738 100.357 53.1738 100.498L53.1738 100.56Q53.209 100.577 53.3145 100.604Q53.4287 100.621 53.4639 100.621Q53.499 100.621 53.6309 100.63Q53.7627 100.639 53.9121 100.639Q54.0703 100.647 54.2021 100.656Q54.3428 100.665 54.3867 100.665Q54.3955 100.683 54.4482 100.691Q54.5098 100.709 54.5625 100.727Q54.624 100.744 54.6768 100.753Q54.7295 100.762 54.7383 100.762L54.7822 100.762Q54.8174 100.762 54.958 100.753Q55.0986 100.744 55.2568 100.727Q55.4238 100.709 55.5645 100.691Q55.7051 100.683 55.7402 100.665Q55.8018 100.665 55.8809 100.674Q55.9688 100.683 56.0479 100.683Q56.1885 100.683 56.2939 100.63Q56.3212 100.619 56.342 100.601Q56.4082 100.544 56.4082 100.41Q56.4082 100.3 56.3547 100.233Q56.3396 100.215 56.3203 100.199Q56.2412 100.12 56.1182 100.076Q56.0039 100.032 55.8809 99.9971Q55.7578 99.9531 55.6787 99.8916Q55.459 99.707 55.292 99.5049Q55.125 99.3027 54.9932 99.083Q54.8877 98.9002 54.7935 98.7118Q54.7699 98.6646 54.7471 98.6172Q54.6328 98.3711 54.5273 98.125L54.3164 97.7295Q54.2988 97.7031 54.2373 97.6152Q54.1846 97.5273 54.1143 97.4307Q54.0439 97.3252 53.9824 97.2461Q53.9297 97.1582 53.9209 97.1406Q53.9121 97.123 53.8682 97.0439Q53.833 96.9648 53.7803 96.8682L53.6748 96.6748Q53.6221 96.5693 53.5869 96.5166Q53.499 96.3408 53.4023 96.1387Q53.3057 95.9365 53.3057 95.752Q53.3057 95.6641 53.3232 95.6113Q53.3496 95.5586 53.3848 95.4971Q53.4551 95.3564 53.5605 95.207Q53.666 95.0576 53.7803 94.9609Q53.811 94.939 53.8374 94.9126Q53.8638 94.8862 53.8857 94.8555Q53.9297 94.7939 53.9648 94.75Q53.9912 94.7236 54.0615 94.6445Q54.1318 94.5566 54.2109 94.46Q54.2988 94.3633 54.3691 94.2842Q54.4395 94.1963 54.4658 94.1699Q54.7383 93.8359 55.0371 93.6074Q55.3447 93.3701 55.7402 93.2295Q55.8633 93.1943 56.0215 93.168Q56.1885 93.1416 56.3379 93.0977Q56.4873 93.0449 56.584 92.9482Q56.5987 92.9348 56.6113 92.9196Q56.6895 92.8258 56.6895 92.667Q56.6895 92.5352 56.6455 92.4648Q56.6241 92.4305 56.5943 92.4067Q56.563 92.3817 56.5225 92.3682Q56.4521 92.3418 56.3467 92.3418Q56.25 92.333 56.1357 92.333Q55.9863 92.333 55.8369 92.3506Q55.6875 92.3594 55.5293 92.4297L53.9824 92.4297Q53.9648 92.4297 53.8594 92.4473Q53.7627 92.4648 53.7188 92.4824Q53.6748 92.5 53.6133 92.5176Q53.5605 92.5352 53.5078 92.5615Q53.4551 92.5791 53.4199 92.6143Q53.4023 92.6274 53.3936 92.645Q53.3848 92.6626 53.3848 92.6846Q53.3848 92.7427 53.4104 92.7855Q53.4429 92.8397 53.5166 92.8691Q53.6572 92.9131 53.8154 92.957Q53.9824 92.9922 54.1143 93.0713Q54.1646 93.0964 54.1969 93.1362Q54.2549 93.2076 54.2549 93.3262Q54.2549 93.4141 54.2285 93.502Q54.2091 93.5668 54.1657 93.6029ZM31.0869 100.639Q31.1748 100.621 31.1924 100.621Q31.2012 100.621 31.2803 100.63Q31.3594 100.647 31.4473 100.665Q31.5439 100.683 31.623 100.691Q31.7021 100.709 31.7285 100.709Q31.7725 100.709 31.8516 100.7Q31.9395 100.7 32.001 100.665Q32.0098 100.665 32.1064 100.639Q32.2119 100.621 32.2295 100.621L32.8184 100.621Q32.8535 100.621 32.9854 100.612Q33.126 100.604 33.2754 100.595Q33.4248 100.586 33.5566 100.577Q33.6885 100.568 33.7324 100.56L33.873 100.56Q33.8818 100.568 33.9258 100.577Q33.9697 100.586 34.0225 100.595Q34.0752 100.604 34.1191 100.612Q34.1631 100.621 34.1719 100.621Q34.251 100.63 34.3916 100.639Q34.541 100.647 34.6904 100.647Q34.8486 100.656 34.9717 100.656Q35.1035 100.665 35.1475 100.665Q35.1562 100.674 35.332 100.674Q35.5078 100.683 35.7363 100.683L37.3799 100.683Q37.626 100.683 37.8369 100.674Q38.0479 100.674 38.127 100.665Q38.3555 100.612 38.4521 100.542Q38.5365 100.486 38.5759 100.407Q38.5857 100.387 38.5928 100.366Q38.6367 100.261 38.6367 100.12Q38.6367 99.9707 38.6543 99.7686Q38.6543 99.751 38.6807 99.6807Q38.707 99.6016 38.707 99.584L38.707 99.54Q38.7158 99.4961 38.7158 99.4346L38.7158 99.2061Q38.7158 99.1094 38.707 98.96Q38.707 98.8018 38.6719 98.6523Q38.6367 98.5029 38.5576 98.3975Q38.5192 98.3419 38.4661 98.3134Q38.4101 98.2832 38.3379 98.2832Q38.2676 98.2832 38.25 98.292Q38.2412 98.3008 38.2061 98.3447Q38.1797 98.3711 38.127 98.4502Q38.0742 98.5205 38.0039 98.6084L37.8809 98.7666Q37.8281 98.8369 37.793 98.8721Q37.793 98.8896 37.7402 98.9863Q37.6875 99.0742 37.6699 99.083L37.626 99.127Q37.6172 99.127 37.582 99.1445Q37.5557 99.1621 37.5205 99.1885L37.4502 99.2412Q37.4238 99.2588 37.4238 99.2676Q37.415 99.2764 37.3975 99.3115Q37.3799 99.3467 37.3623 99.3906Q37.3447 99.4258 37.3271 99.4697Q37.3096 99.5049 37.3096 99.5137Q37.2832 99.5488 37.2217 99.6104Q37.1689 99.6719 37.0986 99.7422L36.9844 99.8564Q36.9316 99.9004 36.9141 99.9092Q36.9053 99.918 36.8438 99.9355Q36.7822 99.9443 36.7031 99.9531Q36.624 99.9619 36.5361 99.9707Q36.457 99.9795 36.4219 99.9795L34.9365 99.9795Q34.6816 99.9795 34.4004 100.023Q34.1279 100.059 33.873 100.103L33.8203 100.103Q33.7618 100.103 33.7105 100.083Q33.6231 100.051 33.5566 99.9619Q33.4894 99.8579 33.4689 99.7454Q33.46 99.6963 33.46 99.6455L33.46 99.6104Q33.46 99.584 33.4688 99.5664Q33.4688 99.54 33.4775 99.5137Q33.4775 99.4873 33.5039 99.4521Q33.5303 99.4082 33.5303 99.3906Q33.5303 99.373 33.5039 99.3027Q33.4775 99.2236 33.4775 99.2061L33.4775 99.083Q33.4775 99.0654 33.4863 98.9863Q33.4951 98.9072 33.5039 98.8105Q33.5127 98.7139 33.5215 98.626Q33.5303 98.5381 33.5303 98.5117L33.5303 96.666Q33.5303 96.6396 33.5391 96.543Q33.5566 96.4463 33.5654 96.3408Q33.583 96.2266 33.5918 96.1387Q33.6094 96.042 33.6094 96.0332L33.6094 94.9082Q33.6094 94.5039 33.627 94.1172Q33.6533 93.7305 33.7324 93.335Q33.75 93.2646 33.7939 93.2207Q33.8267 93.188 33.8662 93.1722Q33.8903 93.1625 33.917 93.1592Q33.9434 93.1592 34.0576 93.1504Q34.1719 93.1328 34.3037 93.124Q34.4355 93.1064 34.5498 93.0977Q34.6729 93.0801 34.708 93.0801Q34.8047 93.0625 34.9541 92.9834Q35.1035 92.8955 35.1738 92.8516Q35.1738 92.834 35.1914 92.79Q35.209 92.7373 35.209 92.7109Q35.209 92.5893 35.1489 92.5192Q35.1482 92.5184 35.1475 92.5176Q35.1269 92.4901 35.1009 92.4694Q35.0604 92.437 35.0068 92.4209Q34.9189 92.3857 34.8135 92.377Q34.708 92.3682 34.6025 92.3682Q34.585 92.3682 34.5674 92.377L34.5059 92.377Q34.4971 92.377 34.4443 92.3857Q34.4004 92.3945 34.3389 92.4033L34.2334 92.4209Q34.1807 92.4297 34.1719 92.4297L33.7324 92.4297Q33.7236 92.4297 33.6621 92.4385Q33.6094 92.4473 33.5391 92.4561Q33.4775 92.4648 33.416 92.4824Q33.3545 92.4912 33.3369 92.5L33.1523 92.5Q33.1084 92.4912 32.9502 92.4824Q32.792 92.4648 32.6074 92.4561Q32.4316 92.4473 32.2734 92.4385Q32.1152 92.4297 32.0713 92.4297Q32.0449 92.4297 31.957 92.4385Q31.8779 92.4473 31.7812 92.4561Q31.6934 92.4648 31.6143 92.4736Q31.5352 92.4824 31.5088 92.4824Q31.4121 92.5 31.2363 92.4648Q31.0605 92.4297 30.9375 92.4297Q30.876 92.4297 30.7881 92.4648Q30.709 92.4912 30.6387 92.5439Q30.6035 92.5703 30.5728 92.6011Q30.542 92.6318 30.5156 92.667Q30.4866 92.7008 30.4736 92.74Q30.4629 92.772 30.4629 92.8076Q30.4629 92.9049 30.5092 92.9686Q30.5298 92.9969 30.5596 93.0186Q30.665 93.0801 30.8232 93.1064Q30.9814 93.1328 31.166 93.1416Q31.3594 93.1416 31.5264 93.168Q31.7021 93.1943 31.8252 93.2559Q31.8951 93.2838 31.9403 93.3341Q31.9803 93.3785 32.001 93.4404Q32.001 93.458 32.0098 93.5195Q32.0273 93.5723 32.0361 93.6514L32.0537 93.792Q32.0713 93.8623 32.0713 93.8975L32.0713 95.1191Q32.0713 95.2773 32.0537 95.5234Q32.0449 95.7695 32.0273 96.0068Q32.0186 96.2441 32.0098 96.4199Q32.001 96.5869 32.001 96.5957L31.957 96.71L31.957 96.8857Q31.9658 97 31.9658 97.1406Q31.9658 97.2812 31.957 97.4043L31.957 97.5625Q31.957 97.668 31.9482 97.9141Q31.9395 98.1602 31.9307 98.4238Q31.9219 98.6875 31.9131 98.916Q31.9043 99.1357 31.9043 99.2061Q31.9043 99.2324 31.8955 99.3027Q31.8867 99.373 31.8691 99.4609Q31.8604 99.54 31.8428 99.6191Q31.834 99.6895 31.834 99.7246Q31.834 99.7422 31.8252 99.7686Q31.8164 99.7949 31.8076 99.8301Q31.7988 99.8652 31.79 99.9092Q31.7461 99.9619 31.5176 99.9795Q31.2891 99.9883 31.0342 100.006Q30.7793 100.015 30.5684 100.059Q30.381 100.091 30.3597 100.169Q30.3581 100.175 30.3574 100.182L30.3574 100.313Q30.3574 100.437 30.4102 100.507Q30.4397 100.546 30.4775 100.575Q30.5072 100.597 30.542 100.612Q30.6299 100.647 30.7354 100.656Q30.8496 100.665 30.9639 100.665L30.999 100.665Q31.0078 100.665 31.0869 100.639ZM22.2012 100.577L22.2891 100.577Q22.3154 100.577 22.4297 100.595Q22.5439 100.604 22.6846 100.621Q22.8252 100.63 22.9395 100.639Q23.0537 100.647 23.0801 100.647L23.9502 100.647Q23.9854 100.656 24.0732 100.665Q24.1611 100.674 24.2578 100.683Q24.3545 100.691 24.4424 100.7Q24.5391 100.709 24.5742 100.709Q24.705 100.675 24.773 100.591Q24.8467 100.5 24.8467 100.349Q24.8467 100.225 24.7862 100.149Q24.7738 100.134 24.7588 100.12Q24.6709 100.041 24.5391 100.006Q24.4072 99.9619 24.2578 99.9443Q24.1084 99.918 23.9766 99.8828Q23.8447 99.8477 23.7568 99.7861Q23.7375 99.7707 23.7225 99.7519Q23.6689 99.685 23.6689 99.5752Q23.6689 99.3291 23.6865 99.1006Q23.6923 99.023 23.7074 98.9473Q23.7386 98.7915 23.8096 98.6436Q23.8359 98.626 23.8887 98.5381Q23.9502 98.4502 23.9502 98.4326Q23.9502 98.4238 23.9678 98.3711Q23.9941 98.3096 24.0117 98.248Q24.0381 98.1777 24.0557 98.125Q24.082 98.0635 24.0996 98.0547Q24.0996 98.0195 24.1611 97.958Q24.2227 97.958 24.2842 97.9668Q24.3457 97.9756 24.4072 97.9756Q24.7148 97.9756 24.9873 97.9316Q25.2686 97.8877 25.585 97.8877L25.7607 97.8877Q25.9277 97.8877 26.0947 97.9229Q26.1823 97.936 26.2502 97.9797Q26.3187 98.0237 26.3672 98.0986Q26.3936 98.1426 26.4287 98.2305Q26.4727 98.3096 26.5078 98.3975L26.5869 98.5557Q26.6221 98.626 26.6396 98.6436Q26.6484 98.6611 26.6748 98.7754Q26.7012 98.8809 26.7275 99.0215Q26.7627 99.1621 26.7891 99.3027Q26.8242 99.4434 26.833 99.5225L26.8506 99.584L26.833 99.6455Q26.7524 99.7773 26.6353 99.8359Q26.6118 99.8477 26.5869 99.8564Q26.4375 99.9004 26.2793 99.9355Q26.2046 99.9531 26.1321 99.9773Q26.0596 100.001 25.9893 100.032Q25.9673 100.04 25.9469 100.051Q25.8363 100.111 25.7695 100.252Q25.7607 100.27 25.7607 100.287L25.7607 100.349Q25.7607 100.445 25.7783 100.498Q25.7959 100.542 25.8926 100.577Q26.0332 100.577 26.3848 100.595Q26.7451 100.604 27.1406 100.621Q27.5449 100.63 27.8965 100.639Q28.248 100.647 28.3887 100.647L28.749 100.647Q28.8721 100.647 29.0127 100.639Q29.1533 100.63 29.2676 100.586Q29.3818 100.542 29.4521 100.463Q29.4588 100.455 29.465 100.448Q29.5312 100.362 29.5312 100.226Q29.5312 100.184 29.5182 100.147Q29.4871 100.059 29.3818 99.9971Q29.2324 99.9092 29.0303 99.8389L28.6436 99.6982Q28.459 99.6279 28.3887 99.5225Q28.2393 99.3203 28.1689 99.0566Q28.0986 98.793 28.0547 98.5645Q28.0459 98.5645 28.0195 98.5205Q28.002 98.4678 27.9756 98.415Q27.9492 98.3535 27.9316 98.3096Q27.9141 98.2568 27.9141 98.248Q27.9053 98.2305 27.8965 98.1865Q27.8877 98.1338 27.8701 98.0811Q27.8613 98.0195 27.8525 97.9756Q27.8438 97.9316 27.8438 97.9141Q27.835 97.8877 27.8086 97.8262Q27.7822 97.7646 27.7471 97.7031Q27.7119 97.6328 27.6768 97.5801Q27.6504 97.5186 27.6416 97.501Q27.5713 97.334 27.5537 97.2197Q27.5449 97.0967 27.501 96.8945Q27.4482 96.6572 27.3428 96.4287Q27.2373 96.1914 27.167 95.9541Q27.1318 95.8486 27.0791 95.6729L26.9736 95.3037Q26.9209 95.1191 26.877 94.9785Q26.8418 94.8379 26.833 94.8115Q26.833 94.7939 26.8154 94.7061Q26.7979 94.6094 26.7715 94.4951Q26.7539 94.3809 26.7363 94.2842Q26.7188 94.1875 26.71 94.1611Q26.71 94.1523 26.6924 94.0908Q26.6748 94.0293 26.6484 93.9502Q26.6309 93.8711 26.6045 93.792Q26.5869 93.7129 26.5781 93.6689Q26.5518 93.6162 26.5166 93.4756Q26.4814 93.3262 26.4287 93.1768Q26.3848 93.0186 26.3145 92.8867Q26.2529 92.7549 26.165 92.7285Q26.1479 92.7257 26.1318 92.7284Q26.0981 92.734 26.0684 92.7637Q26.0244 92.7988 25.9893 92.8516Q25.9541 92.8955 25.9277 92.9482Q25.9014 92.9922 25.8926 93.001Q25.8662 93.0273 25.8047 93.0977Q25.752 93.1592 25.6816 93.2295L25.4971 93.4141Q25.4883 93.4229 25.4268 93.4492L25.3037 93.5107Q25.2334 93.5459 25.1631 93.5723Q25.1016 93.5986 25.084 93.6074Q25.0488 93.6338 24.9785 93.7305Q24.9082 93.8271 24.9082 93.8887Q24.9082 93.8975 24.9258 93.9854Q24.9521 94.0645 24.9521 94.0996L24.9521 94.2227Q24.9521 94.3105 24.9082 94.4072Q24.873 94.5039 24.8203 94.6094Q24.7676 94.7061 24.7061 94.7939Q24.6533 94.8818 24.6182 94.9521Q24.5566 95.1279 24.4863 95.2598Q24.4248 95.3828 24.3545 95.541Q24.3369 95.5674 24.2842 95.6729Q24.2402 95.7783 24.1787 95.8926Q24.126 96.0068 24.0732 96.1035Q24.0293 96.2002 24.0205 96.2266Q24.0205 96.2441 23.9854 96.332Q23.959 96.4199 23.9238 96.5254L23.8535 96.7188Q23.8184 96.8066 23.8096 96.8242Q23.792 96.877 23.7393 97.0088Q23.6953 97.1318 23.6689 97.1582Q23.458 97.6504 23.2207 98.1426Q22.9834 98.626 22.7461 99.1006Q22.7285 99.1182 22.7021 99.2061Q22.6846 99.2939 22.6846 99.3115Q22.6846 99.3379 22.6494 99.3906Q22.6318 99.417 22.623 99.4346L22.5352 99.5225Q22.4912 99.5752 22.4385 99.6279L22.3418 99.7246Q22.2979 99.7598 22.2891 99.7686Q22.2715 99.7861 22.2012 99.8213Q22.1309 99.8477 22.043 99.8828Q21.9639 99.918 21.8936 99.9531Q21.8232 99.9795 21.8057 99.9795Q21.7002 100.023 21.5859 100.076Q21.5596 100.089 21.5398 100.109Q21.4805 100.168 21.4805 100.287L21.4805 100.313Q21.4805 100.331 21.4893 100.393Q21.4893 100.445 21.5068 100.507Q21.5139 100.528 21.5237 100.548Q21.5385 100.577 21.5596 100.604Q21.5802 100.629 21.6068 100.64Q21.6256 100.647 21.6475 100.647L21.7002 100.647Q21.7178 100.647 21.7881 100.639Q21.8672 100.63 21.9551 100.621Q22.043 100.604 22.1133 100.595Q22.1836 100.577 22.2012 100.577ZM24.3194 97.2427Q24.293 97.1998 24.293 97.1406L24.293 97.0352Q24.3193 96.9561 24.3809 96.7539Q24.4512 96.5518 24.5215 96.332Q24.5918 96.1035 24.6533 95.9014Q24.7236 95.6992 24.75 95.6201Q24.7852 95.541 24.8115 95.4092Q24.8379 95.2686 24.873 95.1367Q24.917 95.0049 24.9785 94.9082Q25.0175 94.8546 25.0701 94.8307Q25.1122 94.8115 25.1631 94.8115Q25.1796 94.8115 25.1956 94.8147Q25.2388 94.8234 25.2773 94.8555Q25.3301 94.8994 25.374 94.9697Q25.418 95.0312 25.4443 95.1104Q25.4795 95.1807 25.4971 95.2422Q25.6377 95.6201 25.7959 96.0244Q25.9541 96.4199 26.0332 96.8242L26.0332 96.9736Q26.0332 97.1808 25.9302 97.274Q25.902 97.2994 25.8662 97.3164Q25.6992 97.3867 25.4707 97.3867Q25.374 97.3867 25.2773 97.3779Q25.1807 97.3691 25.084 97.3691L24.6182 97.3691Q24.5215 97.3691 24.4072 97.3164Q24.3479 97.289 24.3194 97.2427Z" fill="#151618" fill-opacity="1.000000" fill-rule="evenodd"/>
</svg>
