<svg width="10.000000" height="12.000000" viewBox="0 0 10 12" fill="none" xmlns="http://www.w3.org/2000/svg" xmlns:xlink="http://www.w3.org/1999/xlink">
	<desc>
			Created with Pixso.
	</desc>
	<defs>
		<clipPath id="clip9_442">
			<rect id="logos:paypal" width="10.000000" height="12.000000" fill="white" fill-opacity="0"/>
		</clipPath>
	</defs>
	<rect id="logos:paypal" width="10.000000" height="12.000000" fill="#FFFFFF" fill-opacity="0"/>
	<g clip-path="url(#clip9_442)">
		<path id="Vector" d="M8.48303 0.933838C7.93872 0.302734 6.95483 0.0322266 5.69604 0.0322266L2.04297 0.0322266C1.91846 0.0322266 1.79797 0.0773926 1.70325 0.159668C1.60852 0.241943 1.54578 0.355957 1.52625 0.480957L0.00512695 10.2942C-0.0250244 10.4878 0.122192 10.6631 0.315063 10.6631L2.57031 10.6631L3.13672 7.00854L3.11914 7.12305C3.15955 6.86475 3.37671 6.67407 3.63391 6.67407L4.70569 6.67407C6.81104 6.67407 8.45959 5.8042 8.94116 3.28784C8.95544 3.21338 8.96777 3.14087 8.97852 3.07031C9.12195 2.14014 8.97754 1.50708 8.48303 0.933838Z" fill="#27346A" fill-opacity="1.000000" fill-rule="nonzero"/>
		<path id="Vector" d="M3.99976 2.73511C4.0614 2.70532 4.12878 2.68994 4.19714 2.68994L7.06116 2.68994C7.40027 2.68994 7.71655 2.7124 8.00562 2.75977C8.08655 2.77271 8.16699 2.78833 8.24695 2.80664C8.36023 2.83203 8.47217 2.86328 8.58252 2.8999C8.72461 2.94824 8.85693 3.00439 8.97852 3.07031C9.12195 2.13989 8.97754 1.50708 8.48303 0.933838C7.93835 0.302734 6.95483 0.0322266 5.69604 0.0322266L2.0426 0.0322266C1.7854 0.0322266 1.56653 0.222656 1.52625 0.480957L0.00512695 10.2939C-0.0250244 10.4878 0.122192 10.6626 0.314697 10.6626L2.57031 10.6626L3.74548 3.08252C3.75708 3.00806 3.78625 2.9375 3.83044 2.87695C3.87476 2.81641 3.93286 2.76782 3.99976 2.73511Z" fill="#27346A" fill-opacity="1.000000" fill-rule="nonzero"/>
		<path id="Vector" d="M8.94141 3.28784C8.45984 5.80396 6.81128 6.67432 4.70581 6.67432L3.63379 6.67432C3.37659 6.67432 3.15942 6.86475 3.11951 7.12305L2.41479 11.667C2.38843 11.8364 2.51721 11.9897 2.68567 11.9897L4.58679 11.9897C4.6958 11.9897 4.80103 11.9502 4.88391 11.8782C4.96667 11.8062 5.02148 11.7065 5.03857 11.5972L5.05701 11.4985L5.41541 9.18872L5.43848 9.06104C5.45544 8.95142 5.51025 8.85181 5.59302 8.78003C5.6759 8.70801 5.78113 8.66846 5.89014 8.66846L6.17456 8.66846C8.01624 8.66846 9.45837 7.90723 9.87976 5.70605C10.0557 4.78613 9.9646 4.01831 9.49939 3.47876C9.35815 3.31543 9.18298 3.18042 8.97876 3.07031C8.96765 3.14136 8.95569 3.21362 8.94141 3.28784Z" fill="#2790C3" fill-opacity="1.000000" fill-rule="nonzero"/>
		<path id="Vector" d="M8.47461 2.86597C8.39954 2.84351 8.32373 2.82397 8.24744 2.80664C8.16748 2.78882 8.08691 2.77319 8.0061 2.76001C7.7168 2.7124 7.40063 2.68994 7.06116 2.68994L4.19751 2.68994C4.12927 2.6897 4.06177 2.70532 4.00012 2.7356C3.93323 2.76807 3.87512 2.81665 3.83081 2.8772C3.7865 2.93774 3.75732 3.0083 3.74585 3.08276L3.13721 7.00854L3.11963 7.12305C3.15967 6.86475 3.37683 6.67432 3.63403 6.67432L4.70605 6.67432C6.81152 6.67432 8.45996 5.80444 8.94153 3.28784C8.95593 3.21362 8.9679 3.14136 8.979 3.07031C8.85706 3.00488 8.7251 2.94824 8.58289 2.90039C8.547 2.88818 8.51099 2.87671 8.47473 2.86597L8.47461 2.86597Z" fill="#1F264F" fill-opacity="1.000000" fill-rule="nonzero"/>
	</g>
</svg>
