<svg width="20.000000" height="22.000000" viewBox="0 0 20 22" fill="none" xmlns="http://www.w3.org/2000/svg" xmlns:xlink="http://www.w3.org/1999/xlink">
	<desc>
			Created with Pixso.
	</desc>
	<defs/>
	<path id="icon" d="M14.5918 5C14.5728 4.91919 14.553 4.83838 14.5325 4.75757C14.2649 3.70142 13.8433 2.55371 13.156 1.6499C12.4473 0.718018 11.4124 0 10 0C8.58765 0 7.55273 0.718018 6.84399 1.6499C6.15674 2.55371 5.73511 3.70142 5.46753 4.75757C5.44702 4.83838 5.42725 4.91919 5.4082 5L3.78564 5C2.18408 5 0.856934 6.22461 0.750488 7.80054L0.00683594 18.8005C-0.110107 20.532 1.28247 22 3.04199 22L16.958 22C18.7175 22 20.1101 20.532 19.9932 18.8005L19.2495 7.80054C19.1431 6.22461 17.8159 5 16.2144 5L14.5918 5ZM5.94409 10C6.52515 10 6.95605 9.56836 6.95825 8.99805C6.95825 8.97437 6.9585 8.95068 6.95898 8.92676C6.95996 8.87402 6.96167 8.79443 6.96533 8.69189C6.9729 8.48657 6.98779 8.18994 7.01807 7.83301C7.03931 7.57983 7.06812 7.29858 7.10693 7L12.8931 7C12.9319 7.29858 12.9607 7.57983 12.9819 7.83301C13.0122 8.18994 13.0271 8.48657 13.0347 8.69189C13.0383 8.79443 13.04 8.87402 13.041 8.92676C13.0415 8.95142 13.0417 8.97583 13.0417 9.00049C13.0417 9.00049 13.042 10 14.0559 10C15.0698 10 15.0698 8.99854 15.0698 8.99854C15.0698 8.96362 15.0693 8.92847 15.0686 8.89355C15.0676 8.8291 15.0654 8.73682 15.0613 8.62061C15.0527 8.38843 15.0361 8.06006 15.0029 7.66699C14.9856 7.46191 14.9636 7.23804 14.9358 7L16.2144 7C16.7483 7 17.1907 7.4082 17.2261 7.93359L17.9697 18.9336C18.0088 19.5107 17.5444 20 16.958 20L3.04199 20C2.45557 20 1.99121 19.5107 2.03027 18.9336L2.77393 7.93359C2.80933 7.4082 3.25171 7 3.78564 7L5.06421 7C5.03638 7.23804 5.0144 7.46191 4.99707 7.66699C4.96387 8.06006 4.94727 8.38843 4.93872 8.62061C4.93457 8.73682 4.93237 8.8291 4.9314 8.89355C4.93066 8.92773 4.93042 8.96216 4.93018 8.99658C4.92944 9.56714 5.3645 10 5.94409 10ZM7.49902 5L12.501 5C12.2664 4.15332 11.9478 3.39478 11.5337 2.8501C11.1016 2.28198 10.6157 2 10 2C9.38428 2 8.89844 2.28198 8.46631 2.8501C8.05225 3.39478 7.73364 4.15332 7.49902 5Z" fill="#151618" fill-opacity="1.000000" fill-rule="evenodd"/>
</svg>
