<svg width="22.000000" height="22.000000" viewBox="0 0 22 22" fill="none" xmlns="http://www.w3.org/2000/svg" xmlns:xlink="http://www.w3.org/1999/xlink">
	<desc>
			Created with Pixso.
	</desc>
	<defs/>
	<path id="icon" d="M16.0393 14.6243C17.2715 13.084 18.0083 11.1301 18.0083 9.00415C18.0083 4.03125 13.9771 0 9.00415 0C4.03125 0 0 4.03125 0 9.00415C0 13.9771 4.03125 18.0083 9.00415 18.0083C11.1301 18.0083 13.084 17.2715 14.6243 16.0393L20.2922 21.707C20.6829 22.0977 21.3162 22.0977 21.707 21.707C22.0977 21.3162 22.0977 20.6829 21.707 20.2922L16.0393 14.6243ZM9.00415 16.0173C5.13086 16.0173 1.99097 12.8774 1.99097 9.00415C1.99097 5.13086 5.13086 1.99097 9.00415 1.99097C12.8774 1.99097 16.0173 5.13086 16.0173 9.00415C16.0173 12.8774 12.8774 16.0173 9.00415 16.0173Z" fill="#151618" fill-opacity="1.000000" fill-rule="evenodd"/>
</svg>
