<svg width="18.000000" height="22.000000" viewBox="0 0 18 22" fill="none" xmlns="http://www.w3.org/2000/svg" xmlns:xlink="http://www.w3.org/1999/xlink">
	<desc>
			Created with Pixso.
	</desc>
	<defs/>
	<path id="icon" d="M14 5.5C14 8.5376 11.7615 11 9 11C6.23853 11 4 8.5376 4 5.5C4 2.4624 6.23853 0 9 0C11.7615 0 14 2.4624 14 5.5ZM6 5.5C6 7.32251 7.34326 8.80005 9 8.80005C10.6567 8.80005 12 7.32251 12 5.5C12 3.67749 10.6567 2.19995 9 2.19995C7.34326 2.19995 6 3.67749 6 5.5ZM12.916 12.6987C13.957 12.0811 15.2605 12.2634 16.1028 13.1086C16.4851 13.4924 16.937 13.9927 17.2996 14.5391C17.6448 15.0591 18 15.7542 18 16.5L18 19.0002C18 20.6575 16.6567 22 15 22L3 22C1.34326 22 0 20.6575 0 19.0002L0 16.5C0 15.7637 0.345947 15.0781 0.684814 14.5627C1.04028 14.022 1.48438 13.5256 1.86426 13.1418C2.73462 12.2622 4.07593 12.1133 5.12012 12.7544C5.22437 12.8184 5.323 12.8794 5.41675 12.9377C5.89819 13.2371 6.26367 13.4641 6.72607 13.6448C7.24927 13.8491 7.92676 14 9 14C10.0835 14 10.75 13.8401 11.2654 13.6284C11.6755 13.4597 11.9937 13.2634 12.4036 13.0105C12.5581 12.915 12.7256 12.8118 12.916 12.6987ZM14.6863 14.5205C14.478 14.3115 14.1758 14.2769 13.9368 14.4187C13.8147 14.491 13.688 14.5696 13.5559 14.6511C13.1079 14.9282 12.6006 15.2419 12.0254 15.4783C11.2312 15.8044 10.3003 16 9 16C7.72412 16 6.79297 15.8181 5.99829 15.5076C5.34912 15.2542 4.80933 14.917 4.3269 14.616C4.24097 14.5623 4.15649 14.5095 4.07397 14.4587C3.81104 14.2974 3.49414 14.3381 3.28589 14.5486C2.95361 14.8843 2.61011 15.2749 2.3562 15.6614C2.08545 16.073 2 16.355 2 16.5L2 19.0002C2 19.5525 2.44751 20 3 20L15 20C15.5525 20 16 19.5525 16 19.0002L16 16.5C16 16.3521 15.9114 16.0642 15.6331 15.645C15.3723 15.2522 15.0215 14.8569 14.6863 14.5205Z" fill="#151618" fill-opacity="1.000000" fill-rule="evenodd"/>
</svg>
