<svg width="31.000000" height="10.000000" viewBox="0 0 31 10" fill="none" xmlns="http://www.w3.org/2000/svg" xmlns:xlink="http://www.w3.org/1999/xlink">
	<desc>
			Created with Pixso.
	</desc>
	<defs>
		<linearGradient id="paint_linear_9_431_0" x1="1425.189941" y1="30.059174" x2="1701.182373" y2="-990.000916" gradientUnits="userSpaceOnUse">
			<stop stop-color="#222357"/>
			<stop offset="1.000000" stop-color="#254AA5"/>
		</linearGradient>
	</defs>
	<path id="Vector" d="M16.0325 3.19678C16.0148 4.58984 17.2753 5.36719 18.2247 5.82935C19.2003 6.30371 19.528 6.60767 19.524 7.03198C19.5168 7.68091 18.746 7.96729 18.0245 7.97852C16.766 7.9978 16.0343 7.63892 15.4525 7.36743L14.9991 9.48682C15.5829 9.75537 16.6636 9.98975 17.7843 10C20.415 10 22.1362 8.70288 22.1455 6.69141C22.1558 4.13892 18.611 3.99756 18.6353 2.85669C18.6436 2.51074 18.9741 2.14136 19.6982 2.04761C20.0566 2.00024 21.0461 1.96387 22.1678 2.47998L22.6082 0.429443C22.0049 0.210205 21.2295 0 20.2642 0C17.7881 0 16.0465 1.31494 16.0325 3.19678ZM26.839 0.176514C26.3586 0.176514 25.9537 0.456543 25.7731 0.885986L22.0153 9.84937L24.644 9.84937L25.1671 8.40527L28.3795 8.40527L28.683 9.84937L31 9.84937L28.9781 0.176514L26.839 0.176514ZM27.2068 2.78955L27.9653 6.42188L25.8877 6.42188L27.2068 2.78955ZM12.8451 0.176758L10.7729 9.84937L13.2781 9.84937L15.3492 0.176514L12.8451 0.176758ZM9.13928 0.176514L6.53186 6.76025L5.47717 1.16235C5.35339 0.537354 4.86475 0.176514 4.3219 0.176514L0.0596924 0.176514L0 0.45752C0.875 0.647217 1.86926 0.953125 2.47156 1.28052C2.84009 1.48047 2.94519 1.65527 3.06628 2.13037L5.06396 9.84937L7.7113 9.84937L11.7698 0.176514L9.13928 0.176514Z" fill="url(#paint_linear_9_431_0)" fill-opacity="1.000000" fill-rule="nonzero"/>
</svg>
